<svg width="30" height="30" viewBox="0 0 30 30" fill="none" xmlns="http://www.w3.org/2000/svg">
<path d="M15 0C6.72867 0 0 6.72867 0 15C0 23.2713 6.72867 30 15 30C23.2713 30 30 23.2713 30 15C30 6.72867 23.2713 0 15 0Z" fill="#2196F3"/>
<path d="M22.6025 11.8214L14.4774 19.9462C14.2336 20.19 13.9137 20.3126 13.5937 20.3126C13.2737 20.3126 12.9537 20.19 12.71 19.9462L8.64755 15.8838C8.15866 15.3951 8.15866 14.605 8.64755 14.1163C9.13622 13.6275 9.92609 13.6275 10.415 14.1163L13.5937 17.2951L20.8351 10.0539C21.3237 9.56503 22.1136 9.56503 22.6025 10.0539C23.0911 10.5426 23.0911 11.3325 22.6025 11.8214Z" fill="#FAFAFA"/>
</svg>
