<svg width="13" height="17" viewBox="0 0 13 17" fill="none" xmlns="http://www.w3.org/2000/svg">
<path d="M6.50002 0C3.10516 0 0.343262 2.7619 0.343262 6.15672C0.343262 10.3698 5.85295 16.5548 6.08753 16.8161C6.30787 17.0615 6.69256 17.0611 6.9125 16.8161C7.14708 16.5548 12.6568 10.3698 12.6568 6.15672C12.6567 2.7619 9.89484 0 6.50002 0ZM6.50002 15.5965C4.64572 13.3938 1.45198 9.04825 1.45198 6.15679C1.45198 3.37324 3.7165 1.10872 6.50002 1.10872C9.28354 1.10872 11.5481 3.37324 11.5481 6.15676C11.548 9.04835 8.35478 13.3931 6.50002 15.5965Z" fill="white" fill-opacity="0.5"/>
<path d="M6.50005 3.05908C4.79202 3.05908 3.40247 4.44867 3.40247 6.1567C3.40247 7.86474 4.79205 9.25432 6.50005 9.25432C8.20805 9.25432 9.5976 7.86474 9.5976 6.1567C9.5976 4.44867 8.20805 3.05908 6.50005 3.05908ZM6.50005 8.1456C5.40335 8.1456 4.51118 7.2534 4.51118 6.1567C4.51118 5.06 5.40339 4.1678 6.50005 4.1678C7.59672 4.1678 8.48892 5.06 8.48892 6.1567C8.48892 7.2534 7.59672 8.1456 6.50005 8.1456Z" fill="white" fill-opacity="0.5"/>
</svg>
