<svg width="156" height="26" viewBox="0 0 156 26" fill="none" xmlns="http://www.w3.org/2000/svg">
<rect x="73" y="1" width="24" height="24" rx="4" stroke="white" stroke-width="2"/>
<path fill-rule="evenodd" clip-rule="evenodd" d="M83.1248 8H81V18.1248H83.1248V8Z" fill="white"/>
<path fill-rule="evenodd" clip-rule="evenodd" d="M82.7988 8H85.1975C86.4843 8.03966 87.7055 8.59019 88.602 9.53486C89.4985 10.4795 90 11.7441 90 13.0604C90 14.3767 89.4985 15.6412 88.602 16.5858C87.7055 17.5305 86.4843 18.0811 85.1975 18.1208H82.7988V16.1905H85.1105C85.9058 16.165 86.6602 15.8241 87.214 15.2399C87.7678 14.6557 88.0775 13.8742 88.0775 13.0606C88.0775 12.2471 87.7678 11.4655 87.214 10.8813C86.6602 10.2971 85.9058 9.95622 85.1105 9.93077H82.8008V8H82.7988Z" fill="white"/>
<rect x="102" y="1" width="24" height="24" rx="4" stroke="white" stroke-width="2"/>
<path fill-rule="evenodd" clip-rule="evenodd" d="M111.926 8H109.828V18H111.926V8Z" fill="white"/>
<path fill-rule="evenodd" clip-rule="evenodd" d="M111.926 8.00049L110.21 9.2353L116.24 17.996L117.955 16.7612L111.924 8.00049H111.926Z" fill="white"/>
<path fill-rule="evenodd" clip-rule="evenodd" d="M118.323 8H116.224V18H118.323V8Z" fill="white"/>
<rect x="131" y="1" width="24" height="24" rx="4" stroke="white" stroke-width="2"/>
<path fill-rule="evenodd" clip-rule="evenodd" d="M140.049 14.3299L144.406 8H146.951L140.091 17.9954L140.048 17.9641V14.3309L140.049 14.3299Z" fill="white"/>
<path fill-rule="evenodd" clip-rule="evenodd" d="M143.099 12.3821L146.949 17.9954H144.406L141.753 14.1407L143.099 12.3816V12.3821ZM140.183 8.13318L140.049 8.30929V8.03129L140.092 8L140.183 8.13318Z" fill="white"/>
<path fill-rule="evenodd" clip-rule="evenodd" d="M141.099 8H139V18H141.099V8Z" fill="white"/>
<path fill-rule="evenodd" clip-rule="evenodd" d="M30.8223 10.107L31.8353 11.6402C32.2547 12.2703 32.676 12.8984 33.1077 13.5218C33.6813 14.3484 34.2731 15.1672 34.8988 15.9483C35.4526 16.6423 36.0348 17.3159 36.6521 17.9509C37.6804 19.0302 38.8538 19.9545 40.1368 20.6959C40.8911 21.1187 41.6895 21.4538 42.5168 21.6948C43.079 21.8558 43.6525 21.9723 44.2323 22.0432C44.7582 22.1062 45.2875 22.135 45.817 22.1293C46.7375 22.1206 47.6548 22.0142 48.5539 21.8119C49.4274 21.6132 50.2799 21.3283 51.0995 20.9611C52.0238 20.5467 52.9071 20.0423 53.737 19.455C54.5799 18.8602 55.3731 18.1949 56.1085 17.466C56.6414 16.9408 57.1446 16.385 57.6156 15.8012C57.7948 15.5792 57.9681 15.3534 58.1353 15.1237C58.2451 14.9717 58.3521 14.8188 58.4534 14.662L58.4648 14.6446L61.6457 16.7449L61.569 16.8639C61.2086 17.4044 60.8209 17.9252 60.4074 18.4242C59.8828 19.0628 59.3257 19.6728 58.7384 20.2516C56.9603 22.0323 54.8858 23.4745 52.6124 24.5104C52.2431 24.6749 51.8688 24.8269 51.4895 24.9663C50.9306 25.171 50.3619 25.3464 49.7855 25.4918C49.0018 25.6903 48.2051 25.8314 47.4017 25.9139C46.9047 25.9652 46.4049 25.9932 45.906 26C45.8113 26 45.7166 26 45.622 26C45.1174 26 44.6128 25.9719 44.1073 25.9216C43.3597 25.8469 42.6187 25.7156 41.8901 25.5286C41.0302 25.3071 40.1913 25.0078 39.3833 24.6343C38.8419 24.3833 38.3147 24.1015 37.8042 23.7903C37.4135 23.5522 37.0327 23.2989 36.6616 23.0305C36.3996 22.8369 36.1421 22.6394 35.889 22.4381C34.2023 21.0337 32.6888 19.4248 31.3818 17.647C31.1925 17.3973 31.0051 17.1453 30.8195 16.8911V10.1051L30.8223 10.107ZM30.8223 16.893C30.4847 16.3826 30.147 15.8719 29.8094 15.3608C29.3909 14.7297 28.9697 14.1025 28.538 13.4782C27.9634 12.6516 27.3726 11.8328 26.7459 11.0517C26.1948 10.355 25.6097 9.68728 24.9927 9.05101C23.9648 7.9708 22.7914 7.04618 21.5079 6.30509C20.2409 5.58909 18.8501 5.13154 17.4125 4.9578C16.8866 4.89394 16.3573 4.86481 15.8277 4.87067C14.9071 4.87933 13.9898 4.98604 13.0908 5.18909C12.2177 5.38751 11.3655 5.67211 10.5461 6.0389C9.62226 6.45425 8.73911 6.95857 7.90866 7.54498C7.06547 8.13985 6.27197 8.80514 5.53627 9.53401C5.00333 10.0595 4.5001 10.6157 4.0291 11.1998C3.85049 11.4205 3.67723 11.6463 3.50935 11.8773C3.40049 12.0283 3.29256 12.1813 3.19127 12.3381L3.18087 12.3554L0 10.2551C0.024614 10.2154 0.0501908 10.1757 0.0757514 10.137C0.436633 9.59642 0.824633 9.07533 1.23826 8.5758C1.76232 7.93698 2.31915 7.32699 2.90635 6.7484C4.68446 4.96771 6.75896 3.52551 9.03239 2.4896C9.4016 2.32506 9.77583 2.17309 10.1551 2.03371C10.7141 1.82906 11.2828 1.65367 11.8592 1.50817C12.6434 1.31053 13.4403 1.16954 14.2439 1.08619C14.7409 1.03489 15.2398 1.00774 15.7397 1C15.8343 1 15.929 1 16.0237 1C16.5283 1 17.0338 1.0271 17.5384 1.07839C18.2856 1.15277 19.0264 1.28382 19.7546 1.47042C20.615 1.69182 21.4542 1.99144 22.2624 2.36572C22.8038 2.61621 23.331 2.8977 23.8415 3.2088C24.2315 3.4469 24.6121 3.70044 24.9832 3.96952C25.2464 4.1631 25.5038 4.36025 25.7557 4.56093C27.442 5.96608 28.9558 7.57484 30.2638 9.35206C30.4532 9.60371 30.6425 9.85441 30.8252 10.108V16.894L30.8223 16.893Z" fill="white"/>
<path fill-rule="evenodd" clip-rule="evenodd" d="M25.4349 22.3472C25.3251 22.2001 25.2238 22.0452 25.1272 21.8893C24.9483 21.599 24.7845 21.3086 24.6292 21.0027C24.4229 20.602 24.2307 20.1926 24.047 19.7793C23.9164 19.4857 23.7901 19.1902 23.6683 18.8927L26.8483 16.6123L26.9581 16.893C27.2118 17.5348 27.4797 18.1716 27.7779 18.793C27.8669 18.9769 27.9578 19.1598 28.0543 19.3398C27.3507 20.4842 26.4655 21.5006 25.4349 22.3472Z" fill="url(#paint0_linear)"/>
<path fill-rule="evenodd" clip-rule="evenodd" d="M22.8152 16.6645C22.7442 16.466 22.6751 16.2676 22.6107 16.0673C22.4744 15.6427 22.3545 15.2133 22.251 14.779C22.0511 13.9371 21.9 13.0838 21.7985 12.2237C21.6787 11.2217 21.6098 10.2141 21.5921 9.20486C21.577 8.43441 21.5877 7.66396 21.6243 6.89351C21.6366 6.63508 21.6517 6.37563 21.6707 6.11914C21.6906 5.84425 21.7133 5.57131 21.7426 5.29739V5.27612L25.5038 5.72138C25.4963 5.79494 25.4887 5.86847 25.4821 5.94203C25.4735 6.03882 25.465 6.12881 25.4574 6.2227C25.4076 6.87507 25.3789 7.52812 25.3713 8.18178C25.3647 8.80898 25.3713 9.44001 25.4092 10.0614C25.4461 10.7612 25.5038 11.46 25.6061 12.1531C25.6818 12.6922 25.7784 13.2284 25.9024 13.7579C25.9479 13.9514 25.9971 14.145 26.051 14.3386L22.8124 16.6616L22.8152 16.6645Z" fill="white"/>
<path fill-rule="evenodd" clip-rule="evenodd" d="M17.851 25.3969C17.798 25.2788 17.7459 25.1608 17.6947 25.0427C17.5256 24.6504 17.3612 24.2561 17.2015 23.8599C16.7954 22.8485 16.4167 21.8273 16.057 20.7955C15.7288 19.8567 15.4148 18.9123 15.115 17.9625C15.0311 17.6934 14.9472 17.424 14.8632 17.1543C14.7884 16.9103 14.7136 16.6655 14.6445 16.4196C14.4949 15.8892 14.3605 15.355 14.2469 14.8091C14.2356 14.7539 14.2233 14.6997 14.2119 14.6445L18.1018 14.659C18.1851 14.9949 18.2751 15.3298 18.3745 15.6618C18.4351 15.8602 18.4966 16.0586 18.5572 16.257C19.0485 17.8357 19.5721 19.4046 20.1495 20.9523C20.373 21.5505 20.603 22.1457 20.8453 22.7352C21.0262 23.1756 21.2127 23.6131 21.4134 24.0448L21.4522 24.1261L21.6576 24.5336C20.433 24.9955 19.1528 25.2859 17.8519 25.3969H17.851Z" fill="url(#paint1_linear)"/>
<path fill-rule="evenodd" clip-rule="evenodd" d="M13.8217 12.3235C13.7867 12.0564 13.7535 11.7911 13.727 11.525C13.5936 10.347 13.5131 9.16135 13.4733 7.97567C13.4405 6.98002 13.4364 5.98276 13.461 4.98388C13.4705 4.59672 13.4847 4.20955 13.5036 3.82238C13.5206 3.48072 13.5405 3.14001 13.568 2.7993V2.77319L17.3406 3.1081C17.3339 3.18359 17.3292 3.2591 17.3235 3.33459C17.316 3.44687 17.3084 3.55915 17.3017 3.67239C17.2449 4.67514 17.2216 5.67978 17.2317 6.68639C17.2412 7.75109 17.2847 8.81583 17.3709 9.88052C17.4371 10.7023 17.528 11.5259 17.6548 12.339L13.8255 12.3254L13.8217 12.3235Z" fill="white"/>
<path fill-rule="evenodd" clip-rule="evenodd" d="M8.68853 23.0673C8.57493 22.766 8.46356 22.4643 8.35438 22.1623C8.18776 21.6996 8.02775 21.2348 7.87439 20.7676L12.1913 21.5942C12.4292 22.2265 12.6776 22.8541 12.9363 23.4767C13.1711 24.042 13.4097 24.6043 13.6662 25.1609C11.8894 24.8013 10.1985 24.0901 8.68853 23.0673Z" fill="url(#paint2_linear)"/>
<path fill-rule="evenodd" clip-rule="evenodd" d="M7.25933 5.50961L9.38938 5.41284V5.48255C9.43009 6.36238 9.484 7.24123 9.54932 8.11912C9.63326 9.2806 9.73741 10.4421 9.86175 11.6035C9.96683 12.5647 10.0871 13.5229 10.2404 14.4772C10.3512 15.1906 10.4762 15.903 10.6371 16.6066C10.7981 17.3103 10.9959 18.0295 11.2108 18.736C11.2448 18.8473 11.2789 18.9577 11.314 19.069L7.1381 18.2695C7.07183 18.0111 7.00845 17.7527 6.94881 17.4952C6.76705 16.7006 6.62501 15.8981 6.4991 15.0928C6.34195 14.0785 6.21509 13.0603 6.10243 12.0382C5.96421 10.7741 5.85442 9.50513 5.76354 8.23621C5.73987 7.90809 5.71809 7.58094 5.69727 7.25283C6.16269 6.62597 6.6861 6.0464 7.26025 5.52219L7.25933 5.50961Z" fill="white"/>
<path fill-rule="evenodd" clip-rule="evenodd" d="M36.2099 4.65283C36.3197 4.79995 36.421 4.95478 36.5175 5.11061C36.6965 5.40098 36.8602 5.69621 37.0155 5.99723C37.2228 6.39891 37.415 6.80734 37.5978 7.22063C37.7284 7.51488 37.8546 7.81072 37.9764 8.10819L34.7965 10.3896C34.7605 10.2928 34.7236 10.196 34.6867 10.1069C34.4339 9.4652 34.166 8.82931 33.8668 8.20791C33.7791 8.02337 33.6872 7.84078 33.5913 7.6601C34.2946 6.51581 35.1796 5.49945 36.2099 4.65283Z" fill="url(#paint3_linear)"/>
<path fill-rule="evenodd" clip-rule="evenodd" d="M38.8265 10.3364C38.8975 10.53 38.9666 10.7323 39.031 10.9327C39.1683 11.3576 39.2875 11.7873 39.3917 12.2219C39.591 13.0636 39.7421 13.9165 39.8442 14.7762C39.9633 15.7783 40.0318 16.7859 40.0496 17.7951C40.0648 18.5656 40.0541 19.3363 40.0175 20.1074C40.0048 20.3655 39.9897 20.6236 39.972 20.8817C39.9522 21.1557 39.9285 21.4296 39.8991 21.7025V21.7238L36.1379 21.2786C36.1464 21.206 36.1531 21.1324 36.1607 21.0589C36.1692 20.9621 36.1767 20.8711 36.1843 20.7772C36.2341 20.1262 36.2629 19.4731 36.2704 18.8182C36.278 18.1916 36.2657 17.5651 36.2335 16.9385C36.1966 16.2387 36.1332 15.5409 36.0357 14.8469C35.9599 14.3078 35.8634 13.7715 35.7403 13.2421C35.6939 13.0485 35.6456 12.8549 35.5907 12.6614L38.8293 10.3384L38.8265 10.3364Z" fill="white"/>
<path fill-rule="evenodd" clip-rule="evenodd" d="M43.7948 1.604C43.8469 1.72112 43.8989 1.84016 43.9501 1.95728C44.1205 2.3496 44.2849 2.74421 44.4433 3.14105C44.8494 4.1525 45.2281 5.17362 45.5888 6.20444C45.917 7.14459 46.2307 8.0893 46.5298 9.0385C46.615 9.3066 46.6983 9.57661 46.7816 9.84666C46.8564 10.0906 46.9312 10.3306 47.0003 10.5803C47.1511 11.1127 47.2837 11.6495 47.3979 12.1909C47.4102 12.2461 47.4216 12.3013 47.4329 12.3564L43.543 12.3419C43.4609 12.0051 43.37 11.6705 43.2703 11.3382C43.2107 11.1398 43.1491 10.9414 43.0876 10.743C42.5963 9.16431 42.0728 7.59533 41.4953 6.04765C41.2731 5.44949 41.0412 4.85521 40.7995 4.26479C40.6187 3.82536 40.4331 3.38685 40.2315 2.95614L40.1936 2.87485L39.9882 2.4664C41.2128 2.00458 42.493 1.71448 43.7939 1.604H43.7948Z" fill="url(#paint4_linear)"/>
<path fill-rule="evenodd" clip-rule="evenodd" d="M47.8268 14.6812C47.8628 14.9465 47.895 15.2127 47.9215 15.4788C48.054 16.6568 48.1345 17.8414 48.1743 19.0271C48.2077 20.0241 48.2118 21.0213 48.1866 22.0189C48.1771 22.4061 48.1629 22.7932 48.1439 23.1804C48.1278 23.5221 48.107 23.8637 48.0796 24.2044V24.2306L44.307 23.8957C44.3133 23.8202 44.319 23.7447 44.324 23.6692C44.3316 23.556 44.3392 23.4437 44.3458 23.3314C44.4026 22.328 44.426 21.323 44.4159 20.3164C44.4064 19.2517 44.3629 18.187 44.2776 17.1223C44.2114 16.2996 44.1196 15.4769 43.9937 14.6638L47.8221 14.6784L47.8268 14.6812Z" fill="white"/>
<path fill-rule="evenodd" clip-rule="evenodd" d="M52.9561 3.93659C53.071 4.23793 53.1824 4.53995 53.2903 4.84258C53.4569 5.30524 53.6172 5.77013 53.7712 6.23731L49.4533 5.41071C49.216 4.779 48.9677 4.15147 48.7083 3.52814C48.4735 2.96288 48.2349 2.40054 47.9784 1.84399C49.7553 2.20262 51.4464 2.91352 52.9561 3.93659Z" fill="url(#paint5_linear)"/>
<path fill-rule="evenodd" clip-rule="evenodd" d="M54.3864 21.4914L52.2564 21.5882C52.2564 21.564 52.2564 21.5408 52.2564 21.5176C52.2166 20.6387 52.1618 19.7589 52.0974 18.881C52.0122 17.7195 51.908 16.5581 51.784 15.3966C51.6799 14.4364 51.5587 13.4772 51.4111 12.5229C51.2993 11.8095 51.1753 11.0971 51.0144 10.3935C50.8534 9.68981 50.6546 8.96967 50.4407 8.26407C50.4066 8.15277 50.3716 8.04148 50.3365 7.93018L54.5124 8.72965C54.5786 8.98808 54.6421 9.2465 54.7017 9.50396C54.8835 10.2976 55.0255 11.101 55.1504 11.9053C55.3085 12.9197 55.4345 13.9379 55.5481 14.9601C55.6857 16.2248 55.7983 17.4921 55.886 18.762C55.91 19.0898 55.9321 19.4175 55.9523 19.7453C55.4873 20.3725 54.9642 20.9524 54.3903 21.4769L54.3864 21.4914Z" fill="white"/>
<defs>
<linearGradient id="paint0_linear" x1="23.6683" y1="17.3985" x2="28.2009" y2="17.5851" gradientUnits="userSpaceOnUse">
<stop stop-color="#95B9FF"/>
<stop offset="1" stop-color="#ACFFF0"/>
</linearGradient>
<linearGradient id="paint1_linear" x1="14.2119" y1="16.1186" x2="21.9087" y2="16.4055" gradientUnits="userSpaceOnUse">
<stop stop-color="#95B9FF"/>
<stop offset="1" stop-color="#ACFFF0"/>
</linearGradient>
<linearGradient id="paint2_linear" x1="7.87439" y1="21.3699" x2="13.8398" y2="21.7931" gradientUnits="userSpaceOnUse">
<stop stop-color="#95B9FF"/>
<stop offset="1" stop-color="#ACFFF0"/>
</linearGradient>
<linearGradient id="paint3_linear" x1="33.5913" y1="5.43932" x2="38.1229" y2="5.62575" gradientUnits="userSpaceOnUse">
<stop stop-color="#95B9FF"/>
<stop offset="1" stop-color="#ACFFF0"/>
</linearGradient>
<linearGradient id="paint4_linear" x1="39.9882" y1="3.07813" x2="47.684" y2="3.3649" gradientUnits="userSpaceOnUse">
<stop stop-color="#95B9FF"/>
<stop offset="1" stop-color="#ACFFF0"/>
</linearGradient>
<linearGradient id="paint5_linear" x1="47.9784" y1="2.4463" x2="53.9448" y2="2.8697" gradientUnits="userSpaceOnUse">
<stop stop-color="#95B9FF"/>
<stop offset="1" stop-color="#ACFFF0"/>
</linearGradient>
</defs>
</svg>
