<svg width="156" height="26" viewBox="0 0 156 26" fill="none" xmlns="http://www.w3.org/2000/svg">
<g clip-path="url(#clip0)">
<path d="M93 1H77C74.7909 1 73 2.7892 73 4.9963V20.9815C73 23.1886 74.7909 24.9778 77 24.9778H93C95.2091 24.9778 97 23.1886 97 20.9815V4.9963C97 2.7892 95.2091 1 93 1Z" stroke="#0E1025" stroke-width="2"/>
<path fill-rule="evenodd" clip-rule="evenodd" d="M83.1248 7.99268H81V18.1081H83.1248V7.99268Z" fill="#0E1025"/>
<path fill-rule="evenodd" clip-rule="evenodd" d="M82.7988 7.99268H85.1975C86.4843 8.0323 87.7055 8.58232 88.602 9.52612C89.4985 10.4699 90 11.7333 90 13.0484C90 14.3635 89.4985 15.6268 88.602 16.5705C87.7055 17.5144 86.4843 18.0644 85.1975 18.1041H82.7988V16.1756H85.1105C85.9058 16.1501 86.6602 15.8095 87.214 15.2259C87.7678 14.6422 88.0775 13.8614 88.0775 13.0486C88.0775 12.2358 87.7678 11.455 87.214 10.8713C86.6602 10.2877 85.9058 9.94709 85.1105 9.92166H82.8008V7.99268H82.7988Z" fill="#0E1025"/>
<path d="M122 1H106C103.791 1 102 2.7892 102 4.9963V20.9815C102 23.1886 103.791 24.9778 106 24.9778H122C124.209 24.9778 126 23.1886 126 20.9815V4.9963C126 2.7892 124.209 1 122 1Z" stroke="#0E1025" stroke-width="2"/>
<path fill-rule="evenodd" clip-rule="evenodd" d="M111.926 7.99268H109.828V17.9834H111.926V7.99268Z" fill="#0E1025"/>
<path fill-rule="evenodd" clip-rule="evenodd" d="M111.926 7.99316L110.21 9.22683L116.24 17.9794L117.955 16.7458L111.924 7.99316H111.926Z" fill="#0E1025"/>
<path fill-rule="evenodd" clip-rule="evenodd" d="M118.323 7.99268H116.224V17.9834H118.323V7.99268Z" fill="#0E1025"/>
<path d="M151 1H135C132.791 1 131 2.7892 131 4.9963V20.9815C131 23.1886 132.791 24.9778 135 24.9778H151C153.209 24.9778 155 23.1886 155 20.9815V4.9963C155 2.7892 153.209 1 151 1Z" stroke="#0E1025" stroke-width="2"/>
<path fill-rule="evenodd" clip-rule="evenodd" d="M140.049 14.3167L144.406 7.99268H146.951L140.091 17.9788L140.048 17.9476V14.3177L140.049 14.3167Z" fill="#0E1025"/>
<path fill-rule="evenodd" clip-rule="evenodd" d="M143.099 12.3707L146.949 17.9788H144.406L141.753 14.1277L143.099 12.3702V12.3707ZM140.183 8.12573L140.049 8.30168V8.02394L140.092 7.99268L140.183 8.12573Z" fill="#0E1025"/>
<path fill-rule="evenodd" clip-rule="evenodd" d="M141.099 7.99268H139V17.9834H141.099V7.99268Z" fill="#0E1025"/>
<path fill-rule="evenodd" clip-rule="evenodd" d="M30.8223 10.0986L31.8353 11.6304C32.2547 12.2599 32.676 12.8874 33.1077 13.5102C33.6813 14.3361 34.2731 15.1541 34.8988 15.9345C35.4526 16.6278 36.0348 17.3008 36.6521 17.9352C37.6804 19.0135 38.8538 19.937 40.1368 20.6777C40.8911 21.1001 41.6895 21.4349 42.5168 21.6757C43.079 21.8365 43.6525 21.9529 44.2323 22.0237C44.7582 22.0867 45.2875 22.1154 45.817 22.1098C46.7375 22.1011 47.6548 21.9948 48.5539 21.7926C49.4274 21.5941 50.2799 21.3095 51.0995 20.9426C52.0238 20.5286 52.9071 20.0247 53.737 19.4379C54.5799 18.8437 55.3731 18.179 56.1085 17.4508C56.6414 16.9261 57.1446 16.3708 57.6156 15.7875C57.7948 15.5657 57.9681 15.3401 58.1353 15.1106C58.2451 14.9588 58.3521 14.806 58.4534 14.6494L58.4648 14.632L61.6457 16.7303L61.569 16.8492C61.2086 17.3892 60.8209 17.9095 60.4074 18.4081C59.8828 19.0461 59.3257 19.6555 58.7384 20.2338C56.9603 22.0128 54.8858 23.4537 52.6124 24.4887C52.2431 24.653 51.8688 24.8049 51.4895 24.9441C50.9306 25.1486 50.3619 25.3239 49.7855 25.4691C49.0018 25.6675 48.2051 25.8084 47.4017 25.8909C46.9047 25.9421 46.4049 25.9701 45.906 25.9769C45.8113 25.9769 45.7166 25.9769 45.622 25.9769C45.1174 25.9769 44.6128 25.9488 44.1073 25.8985C43.3597 25.8239 42.6187 25.6927 41.8901 25.5059C41.0302 25.2846 40.1913 24.9856 39.3833 24.6124C38.8419 24.3617 38.3147 24.0801 37.8042 23.7692C37.4135 23.5313 37.0327 23.2783 36.6616 23.0101C36.3996 22.8167 36.1421 22.6194 35.889 22.4183C34.2023 21.0152 32.6888 19.4078 31.3818 17.6316C31.1925 17.3821 31.0051 17.1304 30.8195 16.8764V10.0967L30.8223 10.0986ZM30.8223 16.8783C30.4847 16.3684 30.147 15.8581 29.8094 15.3475C29.3909 14.717 28.9697 14.0904 28.538 13.4667C27.9634 12.6408 27.3726 11.8228 26.7459 11.0424C26.1948 10.3463 25.6097 9.67924 24.9927 9.04356C23.9648 7.96435 22.7914 7.04059 21.5079 6.30018C20.2409 5.58484 18.8501 5.12772 17.4125 4.95414C16.8866 4.89034 16.3573 4.86123 15.8277 4.86709C14.9071 4.87574 13.9898 4.98235 13.0908 5.18521C12.2177 5.38345 11.3655 5.66779 10.5461 6.03424C9.62226 6.4492 8.73911 6.95306 7.90866 7.53893C7.06547 8.13324 6.27197 8.79792 5.53627 9.52612C5.00333 10.0511 4.5001 10.6068 4.0291 11.1904C3.85049 11.4109 3.67723 11.6365 3.50935 11.8672C3.40049 12.0181 3.29256 12.171 3.19127 12.3276L3.18087 12.3449L0 10.2465C0.024614 10.2069 0.0501908 10.1672 0.0757514 10.1285C0.436633 9.58847 0.824633 9.06786 1.23826 8.56879C1.76232 7.93056 2.31915 7.32114 2.90635 6.74308C4.68446 4.96404 6.75896 3.52317 9.03239 2.48822C9.4016 2.32383 9.77583 2.172 10.1551 2.03275C10.7141 1.82829 11.2828 1.65307 11.8592 1.5077C12.6434 1.31024 13.4403 1.16938 14.2439 1.08611C14.7409 1.03486 15.2398 1.00773 15.7397 1C15.8343 1 15.929 1 16.0237 1C16.5283 1 17.0338 1.02707 17.5384 1.07832C18.2856 1.15263 19.0264 1.28356 19.7546 1.46998C20.615 1.69118 21.4542 1.99052 22.2624 2.36446C22.8038 2.61471 23.331 2.89594 23.8415 3.20676C24.2315 3.44464 24.6121 3.69794 24.9832 3.96677C25.2464 4.16017 25.5038 4.35714 25.7557 4.55764C27.442 5.96149 28.9558 7.56876 30.2638 9.34433C30.4532 9.59575 30.6425 9.84622 30.8252 10.0996V16.8793L30.8223 16.8783Z" fill="#0E1025"/>
<path fill-rule="evenodd" clip-rule="evenodd" d="M25.4349 22.3268C25.3251 22.1798 25.2238 22.025 25.1272 21.8693C24.9483 21.5793 24.7845 21.2891 24.6292 20.9835C24.4229 20.5832 24.2307 20.1742 24.047 19.7612C23.9164 19.4679 23.7901 19.1727 23.6683 18.8755L26.8483 16.5972L26.9581 16.8776C27.2118 17.5188 27.4797 18.155 27.7779 18.7758C27.8669 18.9596 27.9578 19.1423 28.0543 19.3221C27.3507 20.4655 26.4655 21.4809 25.4349 22.3268Z" fill="url(#paint0_linear)"/>
<path fill-rule="evenodd" clip-rule="evenodd" d="M22.8152 16.6488C22.7442 16.4505 22.6751 16.2523 22.6107 16.0522C22.4744 15.628 22.3545 15.199 22.251 14.7651C22.0511 13.924 21.9 13.0715 21.7985 12.2121C21.6787 11.2111 21.6098 10.2044 21.5921 9.1961C21.577 8.42636 21.5877 7.65663 21.6243 6.88689C21.6366 6.6287 21.6517 6.36949 21.6707 6.11324C21.6906 5.8386 21.7133 5.56591 21.7426 5.29225V5.271L25.5038 5.71584C25.4963 5.78934 25.4887 5.8628 25.4821 5.93629C25.4735 6.03299 25.465 6.1229 25.4574 6.2167C25.4076 6.86847 25.3789 7.52091 25.3713 8.17397C25.3647 8.80059 25.3713 9.43103 25.4092 10.0518C25.4461 10.751 25.5038 11.4492 25.6061 12.1416C25.6818 12.6802 25.7784 13.2159 25.9024 13.7449C25.9479 13.9383 25.9971 14.1317 26.051 14.3251L22.8124 16.6459L22.8152 16.6488Z" fill="#0E1025"/>
<path fill-rule="evenodd" clip-rule="evenodd" d="M17.851 25.3733C17.798 25.2553 17.7459 25.1374 17.6947 25.0194C17.5256 24.6275 17.3612 24.2336 17.2015 23.8377C16.7954 22.8273 16.4167 21.807 16.057 20.7762C15.7288 19.8382 15.4148 18.8947 15.115 17.9458C15.0311 17.6769 14.9472 17.4078 14.8632 17.1383C14.7884 16.8946 14.7136 16.65 14.6445 16.4043C14.4949 15.8744 14.3605 15.3407 14.2469 14.7953C14.2356 14.7402 14.2233 14.686 14.2119 14.6309L18.1018 14.6453C18.1851 14.9809 18.2751 15.3155 18.3745 15.6472C18.4351 15.8454 18.4966 16.0437 18.5572 16.2419C19.0485 17.8191 19.5721 19.3866 20.1495 20.9328C20.373 21.5305 20.603 22.1251 20.8453 22.7141C21.0262 23.1541 21.2127 23.5912 21.4134 24.0225L21.4522 24.1037L21.6576 24.5108C20.433 24.9723 19.1528 25.2624 17.8519 25.3733H17.851Z" fill="url(#paint1_linear)"/>
<path fill-rule="evenodd" clip-rule="evenodd" d="M13.8217 12.312C13.7867 12.0451 13.7535 11.7801 13.727 11.5142C13.5936 10.3373 13.5131 9.15276 13.4733 7.96818C13.4405 6.97345 13.4364 5.97711 13.461 4.97915C13.4705 4.59235 13.4847 4.20554 13.5036 3.81873C13.5206 3.47738 13.5405 3.13699 13.568 2.79659V2.77051L17.3406 3.10511C17.3339 3.18053 17.3292 3.25597 17.3235 3.33139C17.316 3.44356 17.3084 3.55574 17.3017 3.66888C17.2449 4.6707 17.2216 5.67441 17.2317 6.68009C17.2412 7.7438 17.2847 8.80756 17.3709 9.87126C17.4371 10.6923 17.528 11.5151 17.6548 12.3275L13.8255 12.3139L13.8217 12.312Z" fill="#0E1025"/>
<path fill-rule="evenodd" clip-rule="evenodd" d="M8.68853 23.0461C8.57493 22.7451 8.46356 22.4437 8.35438 22.1419C8.18776 21.6797 8.02775 21.2153 7.87439 20.7485L12.1913 21.5744C12.4292 22.2061 12.6776 22.8331 12.9363 23.4551C13.1711 24.0199 13.4097 24.5817 13.6662 25.1378C11.8894 24.7785 10.1985 24.068 8.68853 23.0461Z" fill="url(#paint2_linear)"/>
<path fill-rule="evenodd" clip-rule="evenodd" d="M7.25933 5.5044L9.38938 5.40771V5.47736C9.43009 6.35638 9.484 7.23441 9.54932 8.11149C9.63326 9.2719 9.73741 10.4323 9.86175 11.5926C9.96683 12.553 10.0871 13.5103 10.2404 14.4637C10.3512 15.1764 10.4762 15.8882 10.6371 16.5911C10.7981 17.2942 10.9959 18.0127 11.2108 18.7186C11.2448 18.8297 11.2789 18.94 11.314 19.0512L7.1381 18.2525C7.07183 17.9943 7.00845 17.7362 6.94881 17.4789C6.76705 16.685 6.62501 15.8833 6.4991 15.0787C6.34195 14.0654 6.21509 13.0481 6.10243 12.0269C5.96421 10.764 5.85442 9.49622 5.76354 8.22847C5.73987 7.90066 5.71809 7.57381 5.69727 7.246C6.16269 6.61972 6.6861 6.04069 7.26025 5.51696L7.25933 5.5044Z" fill="#0E1025"/>
<path fill-rule="evenodd" clip-rule="evenodd" d="M36.2099 4.64844C36.3197 4.79542 36.421 4.95011 36.5175 5.10579C36.6965 5.3959 36.8602 5.69085 37.0155 5.99159C37.2228 6.3929 37.415 6.80095 37.5978 7.21386C37.7284 7.50784 37.8546 7.80341 37.9764 8.1006L34.7965 10.3799C34.7605 10.2832 34.7236 10.1865 34.6867 10.0975C34.4339 9.45636 34.166 8.82105 33.8668 8.20023C33.7791 8.01586 33.6872 7.83344 33.5913 7.65293C34.2946 6.50969 35.1796 5.49427 36.2099 4.64844Z" fill="url(#paint3_linear)"/>
<path fill-rule="evenodd" clip-rule="evenodd" d="M38.8265 10.3267C38.8975 10.5201 38.9666 10.7222 39.031 10.9224C39.1683 11.3469 39.2875 11.7762 39.3917 12.2104C39.591 13.0513 39.7421 13.9034 39.8442 14.7624C39.9633 15.7635 40.0318 16.7702 40.0496 17.7785C40.0648 18.5482 40.0541 19.3182 40.0175 20.0886C40.0048 20.3465 39.9897 20.6043 39.972 20.8622C39.9522 21.136 39.9285 21.4096 39.8991 21.6822V21.7035L36.1379 21.2587C36.1464 21.1862 36.1531 21.1127 36.1607 21.0392C36.1692 20.9425 36.1767 20.8516 36.1843 20.7578C36.2341 20.1074 36.2629 19.4549 36.2704 18.8006C36.278 18.1746 36.2657 17.5487 36.2335 16.9227C36.1966 16.2235 36.1332 15.5263 36.0357 14.833C35.9599 14.2944 35.8634 13.7586 35.7403 13.2297C35.6939 13.0363 35.6456 12.8428 35.5907 12.6495L38.8293 10.3287L38.8265 10.3267Z" fill="#0E1025"/>
<path fill-rule="evenodd" clip-rule="evenodd" d="M43.7948 1.60254C43.8469 1.71955 43.8989 1.83848 43.9501 1.95549C44.1205 2.34745 44.2849 2.74169 44.4433 3.13817C44.8494 4.14868 45.2281 5.16886 45.5888 6.19872C45.917 7.138 46.2307 8.08184 46.5298 9.03016C46.615 9.29801 46.6983 9.56777 46.7816 9.83757C46.8564 10.0813 46.9312 10.3211 47.0003 10.5705C47.1511 11.1024 47.2837 11.6387 47.3979 12.1796C47.4102 12.2348 47.4216 12.2899 47.4329 12.345L43.543 12.3305C43.4609 11.994 43.37 11.6597 43.2703 11.3277C43.2107 11.1295 43.1491 10.9313 43.0876 10.7331C42.5963 9.15586 42.0728 7.58833 41.4953 6.04208C41.2731 5.44447 41.0412 4.85074 40.7995 4.26087C40.6187 3.82184 40.4331 3.38374 40.2315 2.95343L40.1936 2.87221L39.9882 2.46414C41.2128 2.00275 42.493 1.71292 43.7939 1.60254H43.7948Z" fill="url(#paint4_linear)"/>
<path fill-rule="evenodd" clip-rule="evenodd" d="M47.8268 14.6678C47.8628 14.9328 47.895 15.1988 47.9215 15.4646C48.054 16.6415 48.1345 17.8251 48.1743 19.0097C48.2077 20.0057 48.2118 21.002 48.1866 21.9987C48.1771 22.3855 48.1629 22.7723 48.1439 23.1591C48.1278 23.5005 48.107 23.8418 48.0796 24.1822V24.2083L44.307 23.8738C44.3133 23.7983 44.319 23.7229 44.324 23.6475C44.3316 23.5344 44.3392 23.4222 44.3458 23.31C44.4026 22.3075 44.426 21.3034 44.4159 20.2978C44.4064 19.234 44.3629 18.1703 44.2776 17.1066C44.2114 16.2847 44.1196 15.4627 43.9937 14.6504L47.8221 14.665L47.8268 14.6678Z" fill="#0E1025"/>
<path fill-rule="evenodd" clip-rule="evenodd" d="M52.9561 3.93295C53.071 4.23401 53.1824 4.53575 53.2903 4.8381C53.4569 5.30033 53.6172 5.76479 53.7712 6.23154L49.4533 5.40571C49.216 4.77458 48.9677 4.14763 48.7083 3.52488C48.4735 2.96014 48.2349 2.39832 47.9784 1.84229C49.7553 2.20058 51.4464 2.91083 52.9561 3.93295Z" fill="url(#paint5_linear)"/>
<path fill-rule="evenodd" clip-rule="evenodd" d="M54.3864 21.4715L52.2564 21.5682C52.2564 21.5441 52.2564 21.5209 52.2564 21.4977C52.2166 20.6196 52.1618 19.7406 52.0974 18.8635C52.0122 17.7031 51.908 16.5428 51.784 15.3824C51.6799 14.4231 51.5587 13.4647 51.4111 12.5113C51.2993 11.7986 51.1753 11.0868 51.0144 10.3839C50.8534 9.68085 50.6546 8.96138 50.4407 8.25643C50.4066 8.14524 50.3716 8.03405 50.3365 7.92285L54.5124 8.72158C54.5786 8.97977 54.6421 9.23795 54.7017 9.49518C54.8835 10.2881 55.0255 11.0907 55.1504 11.8943C55.3085 12.9078 55.4345 13.925 55.5481 14.9463C55.6857 16.2098 55.7983 17.4759 55.886 18.7446C55.91 19.0721 55.9321 19.3995 55.9523 19.727C55.4873 20.3537 54.9642 20.933 54.3903 21.457L54.3864 21.4715Z" fill="#0E1025"/>
</g>
<defs>
<linearGradient id="paint0_linear" x1="23.6683" y1="17.3826" x2="28.2009" y2="17.5694" gradientUnits="userSpaceOnUse">
<stop stop-color="#95B9FF"/>
<stop offset="1" stop-color="#ACFFF0"/>
</linearGradient>
<linearGradient id="paint1_linear" x1="14.2119" y1="16.1036" x2="21.9087" y2="16.3908" gradientUnits="userSpaceOnUse">
<stop stop-color="#95B9FF"/>
<stop offset="1" stop-color="#ACFFF0"/>
</linearGradient>
<linearGradient id="paint2_linear" x1="7.87439" y1="21.3503" x2="13.8397" y2="21.7739" gradientUnits="userSpaceOnUse">
<stop stop-color="#95B9FF"/>
<stop offset="1" stop-color="#ACFFF0"/>
</linearGradient>
<linearGradient id="paint3_linear" x1="33.5913" y1="5.4342" x2="38.1229" y2="5.6208" gradientUnits="userSpaceOnUse">
<stop stop-color="#95B9FF"/>
<stop offset="1" stop-color="#ACFFF0"/>
</linearGradient>
<linearGradient id="paint4_linear" x1="39.9882" y1="3.07531" x2="47.684" y2="3.36234" gradientUnits="userSpaceOnUse">
<stop stop-color="#95B9FF"/>
<stop offset="1" stop-color="#ACFFF0"/>
</linearGradient>
<linearGradient id="paint5_linear" x1="47.9784" y1="2.44404" x2="53.9447" y2="2.86783" gradientUnits="userSpaceOnUse">
<stop stop-color="#95B9FF"/>
<stop offset="1" stop-color="#ACFFF0"/>
</linearGradient>
<clipPath id="clip0">
<rect width="156" height="25.9759" fill="white"/>
</clipPath>
</defs>
</svg>
