<svg width="69" height="60" viewBox="0 0 69 60" fill="none" xmlns="http://www.w3.org/2000/svg">
<g clip-path="url(#clip0)">
<path fill-rule="evenodd" clip-rule="evenodd" d="M49.5377 52.3217L58.8918 39.0859H64.3621L49.6302 60.0002L49.5377 59.9359V52.3217Z" fill="white"/>
<path fill-rule="evenodd" clip-rule="evenodd" d="M56.0892 48.2502L64.3549 60.0002H58.8918L53.2011 51.9431L56.0892 48.2645V48.2502ZM49.8294 39.3645L49.5377 39.7359V39.1502L49.6302 39.0859L49.8294 39.3645Z" fill="white"/>
<path fill-rule="evenodd" clip-rule="evenodd" d="M51.7927 39.0859H47.2899V60.0002H51.7927V39.0859Z" fill="white"/>
<path fill-rule="evenodd" clip-rule="evenodd" d="M30.5023 39.0859H25.9995V60.0002H30.5023V39.0859Z" fill="white"/>
<path fill-rule="evenodd" clip-rule="evenodd" d="M30.5023 39.0859L26.8175 41.6717L39.7639 60.0002L43.4416 57.4216L30.4952 39.0859H30.5023Z" fill="white"/>
<path fill-rule="evenodd" clip-rule="evenodd" d="M44.2383 39.0859H39.7284V60.0002H44.2383V39.0859Z" fill="white"/>
<path fill-rule="evenodd" clip-rule="evenodd" d="M9.14072 39.0859H4.63794V60.0002H9.14072V39.0859Z" fill="white"/>
<path fill-rule="evenodd" clip-rule="evenodd" d="M8.45071 39.0859H13.5155C16.239 39.1705 18.8251 40.3065 20.7356 42.2574C22.6329 44.2025 23.6955 46.8168 23.6955 49.5395C23.6955 52.2622 22.6329 54.8765 20.7356 56.8217C18.8262 58.7752 16.24 59.9138 13.5155 60.0002H8.45071V56.0002H13.3518C15.0249 55.945 16.6123 55.244 17.7835 54.0431C18.9565 52.8414 19.6136 51.2258 19.6136 49.5431C19.6136 47.8604 18.9565 46.2448 17.7835 45.0431C16.606 43.8334 15.0072 43.1293 13.3234 43.0788H8.45071V39.0859Z" fill="white"/>
<path fill-rule="evenodd" clip-rule="evenodd" d="M34.5 9.92857L35.631 11.6C36.1005 12.3143 36.5771 12.9714 37.0537 13.65C37.6939 14.55 38.3555 15.4429 39.0526 16.2929C39.7497 17.1429 40.3259 17.7857 41.0159 18.4786C42.1695 19.6574 43.4844 20.6651 44.9211 21.4714C45.7643 21.933 46.6568 22.2972 47.5815 22.5571C48.2103 22.736 48.8527 22.8627 49.5022 22.9357C50.0897 23.0082 50.6814 23.0416 51.2734 23.0357C52.3045 23.0232 53.3317 22.9059 54.3393 22.6857C55.3153 22.4689 56.2682 22.1579 57.1846 21.7571C58.2172 21.3054 59.2056 20.7578 60.1367 20.1214C61.0762 19.4788 61.9635 18.7623 62.79 17.9786C63.3865 17.4071 63.9494 16.8013 64.4759 16.1643C64.675 15.9214 64.8671 15.6786 65.0592 15.45C65.2512 15.2214 65.301 15.1214 65.4148 14.95L69 17.1429L68.9146 17.2714C68.5109 17.8608 68.0764 18.4283 67.6129 18.9714C67.0288 19.6698 66.4066 20.3351 65.7492 20.9643C63.7551 22.9072 61.4333 24.4792 58.8919 25.6071C58.4793 25.7857 58.0596 25.95 57.6328 26.1071C57.0068 26.3286 56.3666 26.5214 55.7264 26.6786C54.8492 26.8944 53.9577 27.0472 53.0589 27.1357C52.504 27.1929 51.9421 27.2214 51.3801 27.2286H51.0671C50.4993 27.2285 49.9319 27.1999 49.367 27.1429C48.5298 27.0638 47.6999 26.9206 46.8844 26.7143C45.9308 26.4822 44.9999 26.1643 44.1031 25.7643C43.4972 25.4928 42.9081 25.1851 42.339 24.8429C41.8979 24.5857 41.4711 24.3071 41.0586 24.0143C40.7669 23.8071 40.4753 23.5857 40.1907 23.3714C38.3079 21.8395 36.6147 20.0865 35.1473 18.15L34.5142 17.3214V9.92857H34.5ZM34.5 17.3214L33.369 15.6571C32.8995 14.9429 32.4229 14.2857 31.9463 13.6C31.3061 12.7 30.6445 11.8071 29.9403 10.9571C29.3262 10.1975 28.6732 9.47033 27.9841 8.77857C26.8283 7.59924 25.511 6.59147 24.0718 5.78571C22.6557 4.99291 21.1 4.4835 19.4907 4.28571C18.903 4.21563 18.3113 4.18461 17.7195 4.19286C16.6884 4.1994 15.6609 4.31432 14.6536 4.53571C13.6782 4.75474 12.7255 5.06564 11.8082 5.46429C10.7702 5.92663 9.77922 6.48878 8.84907 7.14286C7.22453 8.26158 5.76397 9.60317 4.5099 11.1286C4.31072 11.3643 4.11866 11.6143 3.9266 11.8429C3.73454 12.0714 3.68474 12.1714 3.57093 12.3429L0 10.0857L0.0853608 9.95714C0.490825 9.37143 0.924742 8.8 1.42268 8.25714C1.99888 7.56292 2.60901 6.89782 3.25082 6.26429C5.24693 4.32381 7.56827 2.7521 10.1081 1.62143C10.5207 1.44524 10.9404 1.28095 11.3672 1.12857C11.9926 0.905773 12.6289 0.71505 13.2736 0.557143C14.1505 0.338358 15.042 0.183196 15.9411 0.0928571C16.496 0.0357143 17.0722 0 17.6199 0H17.9329C18.5007 5.93616e-05 19.0681 0.0286666 19.633 0.0857143C20.4679 0.164122 21.2956 0.307409 22.1085 0.514286C23.0839 0.752099 24.0362 1.07721 24.9538 1.48571C25.5569 1.76286 26.1457 2.07039 26.7179 2.40714C27.159 2.66429 27.5858 2.94286 27.9984 3.23571L28.8662 3.87857C30.7508 5.41123 32.4442 7.16679 33.9096 9.10714C34.123 9.37857 34.3364 9.65 34.5356 9.92857V17.3286L34.5 17.3214Z" fill="white"/>
<path fill-rule="evenodd" clip-rule="evenodd" d="M28.4536 23.2715C28.3327 23.1072 28.2189 22.9429 28.1122 22.7715C27.913 22.4572 27.728 22.1358 27.5502 21.8072C27.3226 21.3715 27.1092 20.9215 26.9029 20.4715C26.7559 20.1477 26.6136 19.8262 26.4761 19.5072L30.0328 17.0215L30.1537 17.3215C30.4382 18.0358 30.737 18.7501 31.0713 19.3929C31.1709 19.5929 31.2705 19.7929 31.3772 19.9929C30.5931 21.243 29.6047 22.3514 28.4536 23.2715Z" fill="url(#paint0_linear)"/>
<path fill-rule="evenodd" clip-rule="evenodd" d="M25.5371 17.0784C25.4589 16.857 25.3806 16.6427 25.3095 16.4213C25.153 15.9641 25.025 15.4927 24.904 14.9927C24.6829 14.0745 24.5143 13.1445 24.399 12.207C24.2685 11.1236 24.1973 10.0339 24.1856 8.94269C24.1856 8.10698 24.1856 7.26412 24.2211 6.42126C24.2211 6.14269 24.2211 5.85698 24.2709 5.5784C24.3207 5.29983 24.3207 4.98555 24.3492 4.68555L28.5603 5.16412V5.40698C28.5603 5.51412 28.5603 5.61412 28.5603 5.71412C28.5034 6.4284 28.4678 7.14269 28.4607 7.85698C28.4536 8.57126 28.4607 9.2284 28.5034 9.90698C28.5461 10.5855 28.6101 11.4284 28.7239 12.1855C28.8093 12.7713 28.916 13.357 29.0583 13.9355C29.1081 14.1498 29.165 14.357 29.2219 14.5713L25.5371 17.0713V17.0784Z" fill="white"/>
<path fill-rule="evenodd" clip-rule="evenodd" d="M19.9816 26.5925C19.9175 26.4639 19.8606 26.3354 19.8037 26.2068C19.6188 25.7782 19.4338 25.3497 19.256 24.9211C18.7818 23.8163 18.355 22.702 17.9756 21.5782C17.6057 20.5568 17.2642 19.5282 16.9157 18.4925L16.6383 17.6068C16.5529 17.3425 16.4675 17.0782 16.3893 16.8068C16.2257 16.2282 16.0763 15.6497 15.9483 15.0497L15.9056 14.8711H20.259C20.3515 15.2425 20.4582 15.5854 20.5649 15.964C20.636 16.1854 20.7 16.3997 20.7711 16.614C21.3189 18.3354 21.9093 20.0497 22.5566 21.7354C22.8056 22.3854 23.0617 23.0354 23.332 23.6782C23.5311 24.1568 23.7445 24.6354 23.9651 25.1068L24.0077 25.1925L24.2425 25.6354C22.8688 26.1418 21.433 26.459 19.9744 26.5782L19.9816 26.5925Z" fill="url(#paint1_linear)"/>
<path fill-rule="evenodd" clip-rule="evenodd" d="M15.4717 12.3427C15.429 12.0499 15.3934 11.7642 15.365 11.4713C15.2156 10.1856 15.1231 8.89275 15.0804 7.59989C15.0449 6.52132 15.0377 5.45703 15.0804 4.34275C15.0804 3.92132 15.0804 3.49989 15.1302 3.07846C15.18 2.65703 15.1729 2.36417 15.2014 1.95703L19.4267 2.32132V2.56417C19.4267 2.6856 19.4267 2.80703 19.4267 2.9356C19.3698 4.02846 19.3414 5.12132 19.3485 6.22132C19.3556 7.32132 19.4125 8.54275 19.505 9.69989C19.5832 10.5999 19.6828 11.4927 19.8251 12.3785H15.557L15.4717 12.3427Z" fill="white"/>
<path fill-rule="evenodd" clip-rule="evenodd" d="M9.72402 24.0569C9.59598 23.7284 9.47505 23.3998 9.35413 23.0712C9.16206 22.5641 8.98423 22.0569 8.81351 21.5498L13.6435 22.4498C13.9138 23.1641 14.1912 23.8212 14.4829 24.4998C14.7745 25.1784 15.0093 25.7141 15.2938 26.3355C13.3083 25.9437 11.4169 25.17 9.72402 24.0569Z" fill="url(#paint2_linear)"/>
<path fill-rule="evenodd" clip-rule="evenodd" d="M8.12349 4.91378L10.5065 4.80664V4.88521C10.5563 5.84236 10.6132 6.7995 10.6914 7.74235C10.7839 9.01378 10.8977 10.2781 11.04 11.5424C11.1538 12.5924 11.289 13.6352 11.4597 14.6781C11.5877 15.4566 11.7229 16.2281 11.9078 16.9995C12.0928 17.7709 12.3062 18.5495 12.548 19.3209C12.5836 19.4424 12.6263 19.5638 12.6618 19.6852L7.98834 18.8138L7.77494 17.9638C7.57576 17.0995 7.41215 16.2281 7.277 15.3495C7.11339 14.2852 6.9569 13.1495 6.82885 12.0352C6.67236 10.6566 6.55143 9.28521 6.45184 7.85664C6.45184 7.4995 6.40205 7.14235 6.3736 6.78521C6.89995 6.11446 7.48563 5.49288 8.12349 4.92807V4.91378Z" fill="white"/>
<path fill-rule="evenodd" clip-rule="evenodd" d="M40.5464 3.97852C40.6673 4.1428 40.7811 4.31423 40.8878 4.47852C41.087 4.79994 41.272 5.12137 41.4427 5.44994C41.6774 5.88566 41.8908 6.32852 42.0971 6.77852C42.2465 7.09994 42.3816 7.42137 42.5239 7.74995L38.9672 10.2357C38.9324 10.1312 38.8921 10.0286 38.8463 9.92852C38.5617 9.21423 38.263 8.49994 37.9286 7.85709C37.8291 7.65709 37.7295 7.45709 37.6228 7.25709C38.4106 6.00983 39.3985 4.90202 40.5464 3.97852Z" fill="url(#paint3_linear)"/>
<path fill-rule="evenodd" clip-rule="evenodd" d="M43.4558 10.1787C43.5411 10.3859 43.6123 10.6073 43.6905 10.8287C43.8399 11.293 43.975 11.7573 44.0889 12.2573C44.3116 13.161 44.4826 14.0768 44.601 15.0001C44.7291 16.093 44.8073 17.193 44.8287 18.293C44.8287 19.1359 44.8287 19.9716 44.7931 20.8144C44.7931 21.093 44.7931 21.3787 44.7433 21.6573C44.6935 21.9359 44.6935 22.2573 44.6579 22.5501L40.4468 22.143C40.4468 22.0644 40.4468 21.9787 40.4468 21.9001C40.4468 21.8216 40.4468 21.7001 40.4468 21.593C40.4966 20.8787 40.5322 20.1644 40.5393 19.4501C40.5464 18.7359 40.5393 18.0859 40.4966 17.4001C40.4619 16.6373 40.3883 15.8768 40.2761 15.1216C40.1907 14.5359 40.084 13.9501 39.9489 13.3716C39.892 13.1644 39.8422 12.9501 39.7781 12.743L43.406 10.2073L43.4558 10.1787Z" fill="white"/>
<path fill-rule="evenodd" clip-rule="evenodd" d="M49.0184 0.657227L49.1963 1.04294C49.3812 1.47151 49.5662 1.90008 49.744 2.3358C50.2182 3.4358 50.645 4.5477 51.0244 5.67151C51.3943 6.70008 51.7358 7.72865 52.0843 8.76437L52.3617 9.64294C52.4471 9.90723 52.5325 10.1715 52.6107 10.4429C52.7743 11.0215 52.9237 11.6072 53.0517 12.2001L53.0944 12.3787H48.741C48.6485 12.0144 48.5418 11.6644 48.4351 11.2858C48.364 11.0644 48.3 10.8501 48.2289 10.6358C47.6811 8.91437 47.0907 7.20723 46.4434 5.51437C46.1944 4.86437 45.9383 4.21437 45.668 3.57151C45.4617 3.09294 45.2554 2.61437 45.0278 2.14294L44.9851 2.05008L44.7575 1.60723C46.1312 1.10078 47.567 0.783609 49.0256 0.664369L49.0184 0.657227Z" fill="url(#paint4_linear)"/>
<path fill-rule="evenodd" clip-rule="evenodd" d="M53.5355 14.9143C53.5355 15.2 53.6066 15.4928 53.6351 15.7857C53.7844 17.0714 53.8769 18.3571 53.9196 19.65C53.9623 20.7357 53.9623 21.7928 53.9196 22.9143C53.9196 23.3357 53.9196 23.7571 53.8698 24.1785C53.82 24.6 53.8698 24.8928 53.7987 25.2928L49.5804 24.9285C49.5804 24.85 49.5804 24.7643 49.5804 24.6857C49.5804 24.6071 49.5804 24.4357 49.5804 24.3143C49.6444 23.2214 49.6658 22.1285 49.6587 21.0285C49.6516 19.9285 49.6018 18.7071 49.5022 17.55C49.431 16.65 49.3243 15.75 49.1821 14.8643H53.4501L53.5355 14.9143Z" fill="white"/>
<path fill-rule="evenodd" clip-rule="evenodd" d="M59.276 3.20045C59.404 3.52902 59.525 3.85759 59.6459 4.18616C59.8309 4.6933 60.0158 5.20045 60.1865 5.70759L55.3565 4.80759C55.0862 4.0933 54.8088 3.43616 54.5171 2.75759C54.2255 2.07902 53.9907 1.52902 53.6991 0.921875C55.6881 1.30931 57.5826 2.08334 59.276 3.20045Z" fill="url(#paint5_linear)"/>
<path fill-rule="evenodd" clip-rule="evenodd" d="M60.8765 22.3356L58.4935 22.4427V22.3641C58.4437 21.407 58.3868 20.4499 58.3157 19.507C58.2161 18.2427 58.1023 16.9713 57.96 15.707C57.8462 14.6641 57.7111 13.6141 57.5474 12.5784C57.4194 11.7999 57.2771 11.0213 57.0993 10.257C56.9215 9.49272 56.7009 8.69986 56.4591 7.93557C56.4235 7.81415 56.3808 7.69272 56.3453 7.57129L61.0188 8.44272C61.0899 8.72129 61.161 9.007 61.2251 9.28557C61.4314 10.1499 61.5879 11.0284 61.7301 11.8999C61.908 13.007 62.0502 14.1141 62.1783 15.2284C62.33 16.6046 62.4557 17.988 62.5553 19.3784C62.5553 19.7356 62.6051 20.0927 62.6264 20.4499C62.1054 21.1339 61.5193 21.7654 60.8765 22.3356Z" fill="white"/>
</g>
<defs>
<linearGradient id="paint0_linear" x1="28.0197" y1="20.0715" x2="31.8112" y2="20.2982" gradientUnits="userSpaceOnUse">
<stop stop-color="#632DD7"/>
<stop offset="1" stop-color="#C71A65"/>
</linearGradient>
<linearGradient id="paint1_linear" x1="232.665" y1="684.047" x2="308.228" y2="681.078" gradientUnits="userSpaceOnUse">
<stop stop-color="#632DD7"/>
<stop offset="1" stop-color="#C71A65"/>
</linearGradient>
<linearGradient id="paint2_linear" x1="107.509" y1="273.566" x2="152.402" y2="267.217" gradientUnits="userSpaceOnUse">
<stop stop-color="#632DD7"/>
<stop offset="1" stop-color="#C71A65"/>
</linearGradient>
<linearGradient id="paint3_linear" x1="307.185" y1="480.147" x2="333.345" y2="478.917" gradientUnits="userSpaceOnUse">
<stop stop-color="#632DD7"/>
<stop offset="1" stop-color="#C71A65"/>
</linearGradient>
<linearGradient id="paint4_linear" x1="599.663" y1="903.207" x2="675.221" y2="900.297" gradientUnits="userSpaceOnUse">
<stop stop-color="#632DD7"/>
<stop offset="1" stop-color="#C71A65"/>
</linearGradient>
<linearGradient id="paint5_linear" x1="561.924" y1="391.149" x2="606.865" y2="384.787" gradientUnits="userSpaceOnUse">
<stop stop-color="#632DD7"/>
<stop offset="1" stop-color="#C71A65"/>
</linearGradient>
<clipPath id="clip0">
<rect width="69" height="60" fill="white"/>
</clipPath>
</defs>
</svg>
